<svg xmlns="http://www.w3.org/2000/svg" id="Layer_1" data-name="Layer 1" viewBox="0 0 99.99 99.99">
  <rect width="99.99" height="99.99" rx="7.72" fill="#e8b969"></rect>
  <path d="M581.34,99.53h24v8h-15.2v14.8h12.08v8H590.14v17.21h15.2v8h-24Z" transform="translate(-558.34 -88.41)" fill="#282a2e"></path>
  <path d="M608.85,122.46h13.28c9.12,0,13,4.24,13,12.88v2.24c0,5.76-1.76,9.36-5.68,11v.16c4.72,1.6,6.56,5.76,6.56,11.68v4.8c0,8.65-4.56,13.28-13.36,13.28H608.85Zm12.24,22.8c3.28,0,5.28-1.44,5.28-5.92v-3.12c0-4-1.36-5.76-4.48-5.76h-4.24v14.8Zm1.6,25.2c3,0,4.56-1.36,4.56-5.52v-4.88c0-5.2-1.68-6.8-5.68-6.8h-3.92v17.2Z" transform="translate(-558.34 -88.41)" fill="#282a2e"></path>
</svg>
